                          http://www.imdb.com/title/tt0499549/

Plot:
A paraplegic Marine dispatched to the moon Pandora on a unique mission becomes torn between following his orders and protecting the world he feels is his home.


Info:


General
Unique ID : 228697063202240538235139242836087624312 (0xAC0D73C4C923D0348203FD556B915278)
Complete name : Avatar (2009) BRrip [1080p] (1920x1080) {5.1} Dual {HINDI+ENGLISH}~SaNRiM~.mkv
Format : Matroska
Format version : Version 4 / Version 2
File size : 4.17 GiB
Duration : 2h 41mn
Overall bit rate mode : Variable
Overall bit rate : 3 693 Kbps
Encoded date : UTC 2013-06-20 04:41:30
Writing application : mkvmerge v6.2.0 ('Promised Land') built on Apr 28 2013 12:22:01
Writing library : libebml v1.3.0 + libmatroska v1.4.0


Video
ID : 1
Format : AVC
Format/Info : Advanced Video Codec
Format profile : High@L4.0
Format settings, CABAC : Yes
Format settings, ReFrames : 3 frames
Codec ID : V_MPEG4/ISO/AVC
Duration : 2h 41mn
Bit rate mode : Variable
Bit rate : 2 924 Kbps
Maximum bit rate : 25.0 Mbps
Width : 1 920 pixels
Height : 1 080 pixels
Display aspect ratio : 16:9
Frame rate mode : Constant
Frame rate : 23.976 fps
Color space : YUV
Chroma subsampling : 4:2:0
Bit depth : 8 bits
Scan type : Progressive
Bits/(Pixel*Frame) : 0.059
Stream size : 3.22 GiB (77%)
Title : ~SaNRiM~
Writing library : x264 core 80 r1376kGIT 3feaec2
Language : English
Default : Yes
Forced : No


Audio #1
ID : 2
Format : AC-3
Format/Info : Audio Coding 3
Mode extension : CM (complete main)
Format settings, Endianness : Big
Codec ID : A_AC3
Duration : 2h 41mn
Bit rate mode : Constant
Bit rate : 384 Kbps
Channel(s) : 6 channels
Channel positions : Front: L C R, Side: L R, LFE
Sampling rate : 48.0 KHz
Bit depth : 16 bits
Compression mode : Lossy
Stream size : 444 MiB (10%)
Title : ~SaNRiM~
Language : Hindi
Default : Yes
Forced : No


Audio #2
ID : 3
Format : AC-3
Format/Info : Audio Coding 3
Mode extension : CM (complete main)
Format settings, Endianness : Big
Codec ID : A_AC3
Duration : 2h 41mn
Bit rate mode : Constant
Bit rate : 384 Kbps
Channel(s) : 6 channels
Channel positions : Front: L C R, Side: L R, LFE
Sampling rate : 48.0 KHz
Bit depth : 16 bits
Compression mode : Lossy
Stream size : 444 MiB (10%)
Title : ~SaNRiM~
Language : English
Default : No
Forced : No


Text #1
ID : 7
Format : UTF-8
Codec ID : S_TEXT/UTF8
Codec ID/Info : UTF-8 Plain Text
Title : ~SaNRiM~
Language : English
Default : No
Forced : No

*NO NSAMPLE INCLUDED

Screen shots: 
http://cdn.piczend.com/images/IioV39pO/1371721756_vlcsnap-2013-06-20-15h11m22s103.png 
http://cdn.piczend.com/images/lyms4eS8/1371721829_vlcsnap-2013-06-20-15h11m42s40.png 
http://cdn.piczend.com/images/XKHuf3Ks/1371721749_vlcsnap-2013-06-20-15h11m48s104.png 
http://cdn.piczend.com/images/IWG7ujTg/1371721792_vlcsnap-2013-06-20-15h11m54s161.png 
http://cdn.piczend.com/images/Wu1qtGF4/1371721744_vlcsnap-2013-06-20-15h12m04s8.png 
http://cdn.piczend.com/images/4D7467hF/1371721759_vlcsnap-2013-06-20-15h12m12s91.png 
http://cdn.piczend.com/images/W1QGifpM/1371722120_vlcsnap-2013-06-20-15h12m26s225.png 
http://cdn.piczend.com/images/4uuzSw2R/1371721749_vlcsnap-2013-06-20-15h12m33s40.png 
http://cdn.piczend.com/images/CM4jcV1C/1371721833_vlcsnap-2013-06-20-15h12m41s122.png 
http://cdn.piczend.com/images/QBK6y5RA/1371721863_vlcsnap-2013-06-20-15h12m49s206.png 
http://cdn.piczend.com/images/IUhou5TE/1371721724_vlcsnap-2013-06-20-15h12m56s19.png 
http://cdn.piczend.com/images/zZ5uygQu/1371721884_vlcsnap-2013-06-20-15h13m00s55.png 
http://cdn.piczend.com/images/a1ciNsoj/1371721915_vlcsnap-2013-06-20-15h13m13s190.png 
http://cdn.piczend.com/images/VLZV18XA/1371722109_vlcsnap-2013-06-20-15h13m18s238.png 
http://cdn.piczend.com/images/oUj41MvN/1371722214_vlcsnap-2013-06-20-15h13m23s31.png 
http://cdn.piczend.com/images/wlWmitv4/1371722136_vlcsnap-2013-06-20-15h13m36s159.png 
http://cdn.piczend.com/images/jTCSxfJl/1371722213_vlcsnap-2013-06-20-15h13m45s247.png 
http://cdn.piczend.com/images/vpxoJRDw/1371722055_vlcsnap-2013-06-20-15h13m50s41.png 
http://cdn.piczend.com/images/mae628mf/1371722214_vlcsnap-2013-06-20-15h13m55s100.png 
http://cdn.piczend.com/images/su7KLfTM/1371721840_vlcsnap-2013-06-20-15h13m59s140.png 
http://cdn.piczend.com/images/5kW3dgfj/1371722120_vlcsnap-2013-06-20-15h14m06s207.png 
http://cdn.piczend.com/images/GydYEK54/1371721943_vlcsnap-2013-06-20-15h14m10s249.png 
http://cdn.piczend.com/images/gblabBON/1371722166_vlcsnap-2013-06-20-15h14m17s61.png 
http://cdn.piczend.com/images/F4Ufo6sd/1371722174_vlcsnap-2013-06-20-15h14m25s140.png 
http://cdn.piczend.com/images/LOtCOnbt/1371722090_vlcsnap-2013-06-20-15h14m30s189.png 
http://cdn.piczend.com/images/J3nCigQy/1371722209_vlcsnap-2013-06-20-15h14m38s6.png 
http://cdn.piczend.com/images/HdF3raA3/1371721902_vlcsnap-2013-06-20-15h14m43s62.png 
http://cdn.piczend.com/images/FsPyXGBt/1371722022_vlcsnap-2013-06-20-15h14m55s177.png 
http://cdn.piczend.com/images/Ugtfoqtk/1371722217_vlcsnap-2013-06-20-15h15m15s127.png 
http://cdn.piczend.com/images/MHcya3kx/1371721803_vlcsnap-2013-06-20-15h15m26s235.png 
http://cdn.piczend.com/images/b7mSi6O0/1371722017_vlcsnap-2013-06-20-15h15m29s7.png 
http://cdn.piczend.com/images/Xio5WJkS/1371721852_vlcsnap-2013-06-20-15h15m40s128.png 
http://cdn.piczend.com/images/k0zJqJtR/1371722013_vlcsnap-2013-06-20-15h16m05s121.png 
http://cdn.piczend.com/images/2t6wVvSP/1371722150_vlcsnap-2013-06-20-15h16m07s140.png


If you like my work please comment
Any request? Just PM me
Please seed long after download
Thank you & enjoy the best
~SaNRiM~ 